<svg version="1.1" id="Layer_1" xmlns="http://www.w3.org/2000/svg" xmlns:xlink="http://www.w3.org/1999/xlink" x="0px" y="0px"
	 width="100%" viewBox="0 0 1024 1024" enable-background="new 0 0 1024 1024" xml:space="preserve">
<path fill="#000000" opacity="1.000000" stroke="none" 
	d="
M301.451904,525.407104 
	C295.473816,503.894562 292.071167,482.411469 292.799805,460.449066 
	C294.531891,408.238983 312.227264,362.261932 347.138092,323.171600 
	C377.370270,289.320099 414.580353,266.997131 458.969208,257.501007 
	C511.559174,246.250412 561.970215,252.626663 609.276733,278.934723 
	C656.747131,305.333984 689.058777,344.734802 707.372070,395.628662 
	C714.047546,414.180389 717.237854,433.508057 718.475464,453.256165 
	C720.645264,487.881714 714.371704,520.868652 700.499268,552.478638 
	C691.799744,572.301514 679.866150,590.114563 665.494812,606.290222 
	C643.759460,630.754211 617.221741,648.512146 587.610413,661.960022 
	C573.125977,668.538025 558.376831,667.115601 543.628113,663.167786 
	C533.431946,660.438599 523.833069,656.143738 514.884399,650.591736 
	C512.052246,648.834656 510.108429,648.777283 507.248596,650.388550 
	C492.471985,658.713196 476.850281,664.625793 459.858673,666.665222 
	C446.833740,668.228638 434.586975,666.722778 422.419281,661.194641 
	C388.231049,645.661987 359.162628,623.746094 336.131073,594.047791 
	C320.234711,573.550049 308.808838,550.715515 301.451904,525.407104 
M438.722015,440.133057 
	C445.211975,437.221863 450.278717,433.010162 454.326385,426.858826 
	C458.896027,419.914154 465.294037,414.377411 472.561340,410.044403 
	C499.242035,394.136597 537.764587,399.008240 559.228271,429.934052 
	C560.535034,431.816895 561.429688,434.079681 563.898499,435.381195 
	C568.699463,432.025269 573.389587,428.279785 578.849426,425.778229 
	C580.551270,424.998566 580.567932,423.615997 580.443298,422.005157 
	C579.118225,404.879303 585.027710,390.611938 597.916077,379.390472 
	C615.079895,364.446625 637.627136,371.082642 643.193726,393.114655 
	C647.844666,411.522491 642.994568,428.265869 630.362488,442.215576 
	C620.055298,453.597931 609.158813,455.209656 594.719849,449.059204 
	C594.110779,448.799744 593.465210,448.546875 592.605164,449.599274 
	C594.425232,456.669281 596.176636,464.080841 596.519470,471.737976 
	C596.573425,472.942047 597.534485,474.176788 598.268677,475.267761 
	C603.414795,482.914734 607.297668,491.170532 610.477417,499.802399 
	C611.167603,501.676056 611.249756,504.122528 614.242432,505.311646 
	C617.254944,499.003448 620.490112,492.791138 626.041260,488.321075 
	C633.387451,482.405670 641.495178,479.069458 651.051086,481.762360 
	C657.853027,483.679138 661.713623,489.416382 661.323059,496.462402 
	C660.978455,502.678436 656.743469,507.300598 650.096252,508.715485 
	C642.615906,510.307709 640.871399,512.273071 640.311523,520.028931 
	C639.672913,528.875366 640.631042,537.670349 641.550171,546.436646 
	C643.541748,565.430603 643.144226,584.036804 633.907654,601.451477 
	C633.732788,601.781128 633.885803,602.284729 633.885803,602.898987 
	C678.713440,566.309875 711.461914,489.082001 686.609985,408.184357 
	C661.249329,325.630920 577.130920,269.205811 491.010803,276.310760 
	C402.151367,283.641724 320.690979,356.584442 316.745270,457.630707 
	C315.228546,496.472717 324.629456,532.545410 345.428711,565.439697 
	C356.293884,582.623047 369.455750,597.838684 386.687653,611.018860 
	C386.395508,609.014771 386.409760,608.366943 386.202545,607.800049 
	C381.101532,593.845032 380.924194,579.514893 382.461395,564.938782 
	C383.680939,553.374634 386.986298,542.080505 386.718567,530.329773 
	C386.512390,521.280518 385.106201,519.222534 376.442810,516.222656 
	C368.596252,513.505676 364.993530,506.978271 366.895172,498.924377 
	C368.444153,492.364105 375.761902,488.226807 383.401428,489.185516 
	C389.810791,489.989838 395.314453,492.825531 400.522522,496.673279 
	C403.825134,491.571198 406.603851,487.160828 405.753418,481.359619 
	C405.276733,478.107819 406.650299,475.127228 408.281738,472.368866 
	C415.863739,459.549561 425.983917,449.095612 438.722015,440.133057 
M536.534302,485.771393 
	C537.349182,486.309784 538.104553,486.991394 538.990173,487.359772 
	C541.663818,488.471802 542.897522,490.459381 542.570374,493.263062 
	C542.251465,495.996338 540.483276,497.307648 537.777405,497.377350 
	C535.367981,497.439423 534.937256,499.277924 534.382080,501.055481 
	C533.689148,503.274445 533.105713,505.547577 532.186218,507.672333 
	C528.863831,515.349304 529.540955,517.282227 537.225952,520.831604 
	C539.973145,522.100403 542.919128,522.636414 545.924438,522.941162 
	C547.485840,523.099426 549.349426,522.542114 550.369202,524.387024 
	C550.012085,525.836426 548.834778,525.978210 547.686279,526.247314 
	C540.230896,527.994141 533.540955,526.036804 527.315125,521.997253 
	C524.809998,520.371826 522.566162,519.482910 520.738159,523.143738 
	C523.781616,526.260071 527.606873,527.574646 531.598999,528.815552 
	C536.470520,530.329834 541.506165,530.006836 546.539978,531.727600 
	C566.498474,538.550354 576.215698,559.785645 570.680908,580.907837 
	C566.608582,596.449097 557.241272,608.594238 546.695129,620.104187 
	C544.964233,621.993286 542.557434,623.406616 541.785767,626.040039 
	C543.469910,627.750427 545.442444,628.183411 547.355713,628.712097 
	C559.007690,631.931580 570.677734,631.842896 582.385071,628.962952 
	C615.656494,620.778076 636.456360,590.861267 633.097656,556.892334 
	C631.970398,545.492126 630.244019,534.116699 630.572632,522.552551 
	C630.994629,507.699890 634.235657,502.998077 648.431641,498.815094 
	C649.981567,498.358429 651.185303,497.604431 651.585083,495.971832 
	C652.046082,494.089111 651.166260,492.728668 649.672485,491.725098 
	C646.774353,489.778137 643.715942,490.058594 640.579285,491.093536 
	C629.688110,494.686951 624.522095,502.995758 622.313965,513.558960 
	C619.630371,526.396790 622.548706,539.057373 623.834045,551.770691 
	C625.590515,569.143860 623.892456,585.758484 612.422852,600.005676 
	C610.659241,602.196350 609.112915,604.823730 605.265137,605.555786 
	C606.498352,601.404419 607.726257,597.839478 608.612427,594.191589 
	C613.007874,576.098572 612.217896,557.879211 609.713623,539.641113 
	C606.721069,517.846924 601.211975,496.885956 589.069763,478.164307 
	C587.571533,475.854279 586.857483,473.386230 586.755249,470.639740 
	C586.486694,463.426849 584.843262,456.461304 582.344543,449.734650 
	C577.506104,436.709381 575.695862,435.847870 567.185181,446.843262 
	C560.668396,455.262604 553.679993,458.974121 543.315674,459.245453 
	C538.134216,459.381042 534.303406,459.379730 530.590210,455.243774 
	C525.824890,449.935974 519.523438,446.649139 513.089722,443.803497 
	C510.641052,448.798157 512.061890,453.686890 510.417999,458.220612 
	C509.668182,457.878448 509.072327,457.805176 508.857361,457.480072 
	C497.089081,439.681274 480.215851,436.524017 460.990906,441.299713 
	C439.948792,446.526825 426.538147,461.187714 416.100037,479.161072 
	C414.671631,481.620667 415.035706,484.323395 415.856445,486.931702 
	C418.918762,496.663513 425.593719,503.501556 433.974121,508.724182 
	C442.513580,514.045959 450.173492,511.097595 453.731415,501.569153 
	C456.523376,494.092072 456.652008,486.288544 456.884644,478.458740 
	C457.011841,474.178070 457.652466,469.912628 458.175446,464.451111 
	C464.682861,475.510925 465.170654,497.706543 459.900146,508.316498 
	C454.186584,519.818420 443.256195,523.594421 431.908386,517.455017 
	C427.550812,515.097473 426.088745,516.268372 424.277374,520.368530 
	C418.173828,534.184509 413.642212,548.401062 412.619598,563.516602 
	C411.695648,577.173523 411.624878,590.824219 416.139191,604.047241 
	C419.180206,612.954712 425.020569,619.854797 431.896332,621.915771 
	C422.207001,605.930176 418.096771,588.959045 419.189575,570.884460 
	C420.253326,553.290039 423.709747,536.249939 432.449921,519.633179 
	C432.959381,521.149170 433.238007,521.591309 433.225800,522.025208 
	C433.202637,522.848755 433.113770,523.697876 432.877502,524.483887 
	C427.380524,542.770691 425.892426,561.398987 428.238159,580.323059 
	C429.959625,594.210754 434.119171,607.234741 441.808990,619.099365 
	C447.743805,628.256226 455.527802,632.761963 466.615631,630.715637 
	C472.587280,629.613525 478.754852,629.261475 483.984955,625.940430 
	C483.768280,622.639282 481.414124,621.303223 479.739716,619.550781 
	C469.433960,608.764771 460.236359,597.296753 454.778473,583.124939 
	C446.132416,560.674988 453.720856,531.158020 479.868683,525.552551 
	C480.840118,525.344299 482.056946,524.953613 482.097626,523.842651 
	C482.256683,519.500000 485.070923,520.889343 487.432251,521.226135 
	C492.400970,521.934937 497.431366,522.324097 502.311920,521.080627 
	C521.797424,516.116089 527.169739,502.235809 527.575500,486.250214 
	C527.660400,482.903046 525.761536,480.697968 522.591553,479.511475 
	C520.260315,478.638885 517.843201,477.817474 515.759949,476.504364 
	C513.005493,474.768158 512.686829,471.633820 513.406372,468.918243 
	C514.186584,465.973846 516.807861,468.789032 518.573059,468.072479 
	C516.640625,463.372711 516.347839,458.662933 517.594910,453.085327 
	C523.380188,456.559326 528.061401,459.801117 530.638428,465.605591 
	C525.918884,467.743530 525.785583,462.254791 522.498535,462.023743 
	C522.542358,464.911438 525.267639,467.601471 522.395752,470.705933 
	C529.998596,473.120117 535.755920,476.736023 536.534302,485.771393 
M518.406372,555.919861 
	C524.301453,549.238159 531.583862,547.255737 540.086487,549.618103 
	C547.480835,551.672485 551.486267,556.986084 552.937927,564.140747 
	C554.190430,570.313965 553.158997,576.430847 550.596313,582.194031 
	C543.087646,599.079895 530.388733,611.459778 515.297729,621.400696 
	C495.693451,634.314758 474.747009,642.872253 450.427551,639.340454 
	C426.764038,635.903931 406.775421,617.744812 401.399841,594.615540 
	C397.750824,578.915100 400.333771,563.544189 403.180847,548.122925 
	C405.224304,537.054382 406.174927,525.933044 401.965790,515.122864 
	C398.510010,506.247437 391.848114,500.827728 382.600250,498.735901 
	C379.662689,498.071442 377.261963,499.296082 376.419861,502.355743 
	C375.701813,504.964691 377.114807,506.627258 379.635498,506.996735 
	C391.828461,508.783966 396.095551,519.496521 396.287262,530.846924 
	C396.486023,542.613586 392.989624,553.863586 391.771454,565.423340 
	C388.880310,592.858826 394.373169,617.170959 417.805328,634.726990 
	C419.289337,635.838867 420.504852,636.870056 420.580017,639.093201 
	C420.923065,649.236816 425.272552,654.404297 435.458191,656.617065 
	C445.538269,658.806885 455.710907,658.452209 465.683258,656.149780 
	C497.807770,648.732788 523.968323,631.429016 545.606262,606.957275 
	C553.418335,598.122131 559.341064,588.113220 562.126282,576.507385 
	C565.096680,564.129639 560.685120,551.314758 551.369995,544.841309 
	C541.245605,537.805481 529.318726,537.766968 518.255432,545.402527 
	C514.603943,547.922607 513.101624,546.174133 510.911255,543.860962 
	C501.242737,533.650085 486.913483,531.018555 475.281311,537.191162 
	C464.481140,542.922241 458.377045,556.731689 460.857330,569.712646 
	C464.940216,591.081116 478.259918,606.283630 494.157471,619.798645 
	C497.178986,622.367249 499.549774,620.549988 501.599579,618.644958 
	C504.129639,616.293640 502.036987,614.427185 500.287018,612.853210 
	C495.077362,608.167480 490.025909,603.322266 485.507629,597.964111 
	C478.349640,589.475586 472.370209,580.336853 470.111542,569.203186 
	C467.646057,557.050354 473.653290,546.190308 484.320160,543.615173 
	C494.066315,541.262329 504.310944,546.607361 508.288574,556.243103 
	C509.448975,559.054138 510.279724,562.001221 511.482056,565.533813 
	C513.936279,562.073792 515.930847,559.261780 518.406372,555.919861 
M593.688904,639.082336 
	C593.460327,634.859680 590.680481,635.846863 588.329224,636.647827 
	C570.322266,642.781677 552.682922,641.272217 535.268005,634.301758 
	C534.056641,633.816833 532.691528,632.863159 531.504333,633.850891 
	C528.149109,636.642395 523.974304,638.561462 521.570984,642.347717 
	C522.794250,644.594910 524.603333,645.466064 526.350403,646.414551 
	C533.996826,650.565979 542.094177,653.621399 550.577759,655.388550 
	C561.595459,657.683655 572.672485,658.457642 583.374573,653.757080 
	C589.415100,651.104004 593.488770,646.865417 593.688904,639.082336 
M480.361908,571.024719 
	C484.754425,583.273254 492.826874,592.912964 502.136475,601.662048 
	C503.327362,602.781250 504.640411,604.250977 506.477661,603.419067 
	C508.305115,602.591553 508.058899,600.623535 508.060028,598.998596 
	C508.066589,589.541138 505.165955,581.034607 499.778503,573.271179 
	C495.896057,567.676392 491.652405,562.303101 489.058777,555.879944 
	C487.307312,551.542480 484.772949,551.262207 481.879639,555.010498 
	C478.266174,559.691711 478.619812,564.923889 480.361908,571.024719 
M528.893677,597.402527 
	C535.093079,590.585510 540.561218,583.314270 543.030884,574.230835 
	C544.145325,570.131836 544.566284,565.989502 542.198669,562.173157 
	C539.985168,558.605286 537.782837,558.692932 535.584534,562.253052 
	C533.752258,565.220520 532.089966,568.304504 530.098450,571.159729 
	C525.376831,577.928894 521.777710,585.179260 520.644531,593.407837 
	C520.235962,596.374634 518.668884,600.452576 521.814819,602.116943 
	C524.749817,603.669739 526.219055,599.474731 528.893677,597.402527 
z"/>
<path fill="#000000" opacity="1.000000" stroke="none" 
	d="
M500.892883,768.693237 
	C497.536316,775.971313 493.360260,778.030029 483.931305,777.330322 
	C478.034149,776.892700 475.185150,774.366760 473.112122,767.398682 
	C471.426605,761.733154 469.929871,756.011414 467.503204,750.270325 
	C466.002747,755.983765 464.578339,761.718567 462.983490,767.405579 
	C460.737671,775.413818 457.851593,777.552856 449.352478,777.792786 
	C441.380554,778.017883 436.894470,775.061829 434.686218,767.768250 
	C429.621643,751.040833 425.504303,734.072937 421.994690,716.952637 
	C421.183136,712.993713 422.798523,710.546753 426.272339,709.000000 
	C435.593811,704.849731 442.421509,708.339478 444.191162,718.182556 
	C446.098846,728.792847 447.978546,739.408203 450.153168,751.607300 
	C452.605255,742.510437 454.717529,734.834045 456.738739,727.133728 
	C459.003693,718.504761 463.917267,715.659058 472.644806,718.009705 
	C475.901489,718.886780 477.505615,721.095825 478.310608,724.296997 
	C480.457886,732.835876 482.782806,741.330017 485.873810,749.923828 
	C487.469360,741.127686 489.050476,732.328918 490.668701,723.536987 
	C491.210083,720.595642 491.738098,717.644897 492.461487,714.745667 
	C493.994934,708.599670 498.836670,706.393982 506.750061,708.113342 
	C512.985046,709.468018 514.704285,712.209839 513.377502,719.004272 
	C510.124512,735.662842 506.051208,752.119141 500.892883,768.693237 
z"/>
<path fill="#000000" opacity="1.000000" stroke="none" 
	d="
M674.887756,727.134521 
	C676.745178,730.068604 678.408508,732.696106 680.615845,736.183044 
	C685.080750,728.707458 689.007263,722.011902 693.054749,715.390198 
	C697.201233,708.606567 703.368103,706.288452 710.914917,708.461914 
	C714.333984,709.446594 716.205383,711.470581 716.427551,715.204285 
	C717.517029,733.511230 716.687866,751.832153 716.951782,770.143921 
	C717.001709,773.608154 715.246643,775.666016 711.921936,776.669067 
	C709.123596,777.513367 706.303894,777.473877 703.507324,777.176331 
	C698.064026,776.597229 695.828735,774.176819 695.745178,768.698364 
	C695.629456,761.106689 695.716064,753.511902 695.716064,744.569702 
	C692.959839,748.920715 691.014160,752.145874 688.917908,755.270020 
	C684.309753,762.137512 676.350464,762.163513 671.679749,755.292542 
	C669.730408,752.424988 668.041138,749.380615 665.174744,746.526306 
	C665.174744,753.387817 665.222900,760.249878 665.154297,767.110718 
	C665.120239,770.515259 666.046814,774.526550 661.808350,776.209290 
	C657.156616,778.056152 652.330017,778.139771 647.839722,775.613831 
	C645.459595,774.274902 644.750977,771.795166 644.749023,769.157898 
	C644.735596,751.337463 644.736877,733.517029 644.721191,715.696594 
	C644.717712,711.770935 646.768311,709.620239 650.441467,708.597717 
	C658.352295,706.395569 663.973694,708.602478 668.093323,715.645996 
	C670.278442,719.382080 672.492615,723.101196 674.887756,727.134521 
z"/>
<path fill="#000000" opacity="1.000000" stroke="none" 
	d="
M365.279633,735.428284 
	C367.543457,728.925171 369.690369,722.803772 371.794373,716.667603 
	C373.261993,712.387451 376.139069,709.686890 380.536499,708.580505 
	C386.135956,707.171692 391.751465,707.216431 397.320648,708.591125 
	C401.804260,709.697937 405.036163,712.397522 406.582794,716.864319 
	C412.513062,733.991089 418.320129,751.151978 422.635010,768.784424 
	C423.474426,772.214600 422.209412,774.204712 419.498657,775.788208 
	C411.620239,780.390381 403.203430,777.165710 401.007935,768.393494 
	C400.228760,765.280334 398.688599,764.326294 395.813141,764.364990 
	C391.486206,764.423218 387.154846,764.439941 382.830444,764.307861 
	C379.678986,764.211609 378.072632,765.421021 377.231903,768.615723 
	C374.952850,777.275330 367.252045,780.346191 359.191223,776.191101 
	C355.082245,774.072998 354.741730,770.718994 355.876373,766.866577 
	C358.929260,756.501526 362.050385,746.156555 365.279633,735.428284 
M384.515717,740.851440 
	C384.436127,742.593201 383.000458,744.221619 384.169373,746.308960 
	C387.438416,746.896912 390.789459,747.127808 394.679169,745.982178 
	C393.715576,739.760742 392.110718,733.900269 389.363098,727.544373 
	C386.805542,731.908020 386.185150,736.160767 384.515717,740.851440 
z"/>
<path fill="#000000" opacity="1.000000" stroke="none" 
	d="
M576.689941,751.787781 
	C580.201355,740.798645 583.523254,730.166016 587.075989,719.611023 
	C590.138550,710.512268 594.613281,707.721497 605.379578,707.696838 
	C616.190430,707.672180 620.522949,710.369080 623.693542,719.554260 
	C629.063232,735.109924 634.401489,750.681335 638.520325,766.631042 
	C640.109619,772.785217 638.315918,776.000732 632.104736,776.945862 
	C624.055664,778.170654 618.821838,777.732056 617.129761,768.497559 
	C616.604187,765.629028 614.860718,764.627441 612.273926,764.542664 
	C609.447937,764.450012 606.619202,764.410767 603.791565,764.405945 
	C595.256653,764.391357 595.256714,764.402283 592.279602,772.058899 
	C590.319336,777.100342 584.850464,778.885742 577.795593,776.787231 
	C572.357056,775.169556 570.816772,772.459106 572.358398,766.525574 
	C573.611755,761.701355 575.174805,756.957458 576.689941,751.787781 
M608.758667,736.711914 
	C607.784180,733.900391 607.503235,730.779175 604.869812,727.617065 
	C603.004822,734.334839 600.239746,739.907654 599.811890,746.168335 
	C611.190247,748.011597 611.666504,747.523315 608.758667,736.711914 
z"/>
<path fill="#000000" opacity="1.000000" stroke="none" 
	d="
M312.250916,776.824463 
	C309.845062,777.072021 307.850311,777.338867 305.865662,777.277527 
	C298.801147,777.059448 295.799042,774.125427 295.760834,767.114563 
	C295.670990,750.624268 295.671997,734.133118 295.729645,717.642639 
	C295.750000,711.829102 298.004059,708.554199 303.097443,708.030334 
	C313.041473,707.007507 323.135071,706.699829 332.981262,708.219604 
	C348.128448,710.557373 355.187775,720.612610 354.307068,736.879456 
	C353.629761,749.388672 344.179077,757.917236 329.797058,759.178101 
	C325.865509,759.522827 321.095520,757.564209 318.205292,760.270691 
	C315.431183,762.868530 317.350403,767.570557 317.038177,771.331116 
	C316.795013,774.259338 315.343689,775.900269 312.250916,776.824463 
M332.390228,729.233459 
	C329.079865,725.838806 321.921936,723.674561 318.823639,725.651855 
	C315.331329,727.880554 317.494568,731.741882 316.996124,734.847046 
	C316.789185,736.136230 317.013855,737.501587 317.100067,738.828552 
	C317.167023,739.859680 317.458954,740.999939 318.533630,741.237854 
	C322.693451,742.158508 326.967957,742.276855 330.519867,739.703003 
	C333.854248,737.286743 334.513245,733.739014 332.390228,729.233459 
z"/>
<path fill="#000000" opacity="1.000000" stroke="none" 
	d="
M555.008057,726.352417 
	C552.183228,726.347656 549.851807,726.333191 547.520569,726.341736 
	C541.511902,726.363708 541.013794,727.033386 541.247925,732.935852 
	C541.360413,735.772339 542.527466,736.737488 545.222107,736.688354 
	C550.382446,736.594177 555.546265,736.639648 560.708069,736.687927 
	C566.085815,736.738281 567.770508,738.356262 568.206299,743.739197 
	C568.689148,749.703796 566.640259,753.312378 561.823364,753.750916 
	C556.867798,754.202087 551.835327,754.194519 546.860596,753.931519 
	C542.444641,753.697937 540.839966,755.378357 541.173950,759.717468 
	C541.454285,763.359375 541.293762,767.041443 541.199646,770.702454 
	C541.166260,771.999634 541.187683,773.673950 540.440002,774.513733 
	C536.637146,778.785339 531.544373,777.504089 526.881165,776.881226 
	C523.091370,776.375061 520.624268,773.929565 520.628784,769.696289 
	C520.647827,751.712280 520.633545,733.728210 520.675659,715.744324 
	C520.686646,711.059143 523.204712,708.678284 527.837524,708.651917 
	C540.322144,708.580811 552.808044,708.466858 565.291321,708.587280 
	C570.644714,708.638977 572.260681,710.891724 572.253601,717.176514 
	C572.246460,723.480042 570.178345,726.149414 564.992737,726.329529 
	C561.832520,726.439270 558.665527,726.351990 555.008057,726.352417 
z"/>
<path fill="#000000" opacity="1.000000" stroke="none" 
	d="
M494.267548,333.982361 
	C498.868042,351.462708 498.496979,367.999847 488.382019,383.244263 
	C476.829834,400.654663 454.263214,402.533386 439.939056,387.232910 
	C428.187988,374.680939 424.207550,359.355530 425.250763,342.601440 
	C426.001312,330.547546 429.512512,319.400238 438.055267,310.357574 
	C449.074219,298.693756 466.352448,298.000092 478.466553,308.573608 
	C486.239288,315.357849 491.179962,323.837646 494.267548,333.982361 
z"/>
<path fill="#000000" opacity="1.000000" stroke="none" 
	d="
M577.230408,316.874908 
	C589.752136,337.032532 587.802429,366.757965 572.971252,384.739014 
	C557.005371,404.095612 531.822327,401.542999 519.944092,379.364166 
	C509.092712,359.102692 512.670898,328.308777 527.722168,312.426849 
	C543.632446,295.638519 564.168701,297.356201 577.230408,316.874908 
z"/>
<path fill="#000000" opacity="1.000000" stroke="none" 
	d="
M419.943176,447.029205 
	C409.343567,454.548187 396.693268,454.394592 386.135406,446.857452 
	C368.809998,434.488953 361.009888,407.460663 369.070862,387.727112 
	C375.187683,372.752899 392.146393,367.157135 407.098816,375.534485 
	C420.707123,383.158813 427.558105,395.519623 430.282043,410.493408 
	C431.962036,419.728577 431.400238,428.713623 427.367676,437.333435 
	C425.652649,440.999451 423.548889,444.352753 419.943176,447.029205 
z"/>
<path fill="#000000" opacity="1.000000" stroke="none" 
	d="
M587.774536,490.167725 
	C595.851196,503.621368 599.056824,518.527649 601.968872,533.317627 
	C605.085388,549.145630 606.505859,565.286072 604.186462,581.466797 
	C601.980774,596.854126 597.359924,611.095215 583.969360,620.647095 
	C578.720642,624.391174 572.696228,626.399048 566.098572,626.475464 
	C569.283325,623.509705 573.312256,621.954346 576.479492,619.061218 
	C587.223328,609.247314 592.268250,596.631592 594.684387,582.707275 
	C598.395081,561.322937 597.395203,539.921021 594.539795,518.555176 
	C593.430786,510.256836 590.255676,502.492950 587.655579,494.586792 
	C587.193359,493.181549 585.322083,491.565674 587.774536,490.167725 
z"/>
<path fill="#000000" opacity="1.000000" stroke="none" 
	d="
M504.216797,463.036499 
	C504.880798,465.145203 505.651337,466.849976 505.930573,468.631775 
	C506.866577,474.605347 510.420410,478.434723 515.909546,480.629913 
	C515.449280,483.782715 514.059692,485.127686 511.228973,485.132721 
	C504.777405,485.144135 499.357544,481.026062 497.703522,474.685730 
	C497.285156,473.082062 497.022217,471.438477 496.635132,469.825897 
	C493.842010,458.189850 486.577911,451.044891 474.962372,448.268982 
	C472.917908,447.780396 470.727173,447.733643 468.837067,446.439575 
	C478.755005,439.995392 497.941467,448.902313 504.216797,463.036499 
z"/>
<path fill="#000000" opacity="1.000000" stroke="none" 
	d="
M435.107300,503.075867 
	C429.730804,499.211639 425.518372,494.760376 422.442261,489.302643 
	C420.437195,485.745087 419.875732,482.059753 422.263306,478.430664 
	C426.762695,471.591614 431.964355,465.314545 437.751526,459.530304 
	C438.283081,458.999023 439.157196,458.810455 440.187347,458.309509 
	C440.740967,460.751892 439.260712,462.022003 438.265411,463.395874 
	C435.118103,467.740265 432.550476,472.406067 430.590240,477.380768 
	C427.715424,484.676514 433.149475,495.282288 440.764038,497.460297 
	C443.576294,498.264709 445.263092,496.722107 446.421722,494.530121 
	C447.881989,491.767365 449.116302,488.885223 450.545654,485.847260 
	C452.848969,491.028076 449.033966,503.063354 444.552704,505.464905 
	C440.883179,507.431427 438.232086,504.960510 435.107300,503.075867 
z"/>
<path fill="#000000" opacity="1.000000" stroke="none" 
	d="
M540.421753,513.605347 
	C539.366516,512.056763 538.349365,510.676361 539.575134,509.269592 
	C540.965393,507.674103 542.247314,509.011627 543.472900,509.804962 
	C544.581604,510.522644 545.668335,510.547180 546.628601,509.572754 
	C547.853516,508.329803 547.272339,507.177368 546.377014,506.055847 
	C544.796570,504.076141 542.040710,502.329834 544.512756,499.334961 
	C545.941284,497.604279 553.676147,496.952301 555.485413,498.300842 
	C557.887878,500.091644 556.731140,502.047577 555.592896,503.972839 
	C554.739929,505.415588 552.594727,506.698303 554.639893,508.631378 
	C556.437927,510.330811 558.264771,509.809784 559.913330,508.234955 
	C560.967102,507.228241 562.014709,505.626495 563.552795,507.338928 
	C564.703735,508.620300 564.182861,510.214294 563.284180,511.472992 
	C562.627197,512.393188 561.677612,513.769287 560.834534,513.786743 
	C554.116211,513.925903 547.390381,517.260742 540.421753,513.605347 
z"/>
<path fill="#000000" opacity="1.000000" stroke="none" 
	d="
M494.138092,512.054993 
	C503.995361,510.881592 511.585388,506.145538 518.390015,498.923737 
	C518.460815,505.795380 512.607605,512.067383 503.170166,516.097107 
	C495.825867,519.233093 488.791351,519.446777 481.678375,513.354126 
	C486.046906,511.746887 490.085480,513.449829 494.138092,512.054993 
z"/>
<path fill="#000000" opacity="1.000000" stroke="none" 
	d="
M570.821533,457.240723 
	C569.649414,458.827789 568.708313,460.184937 567.758606,461.536011 
	C567.059570,462.530426 566.240234,463.465332 564.917664,462.704315 
	C563.853455,462.092010 564.038879,461.025116 564.463806,460.068298 
	C566.700684,455.031036 569.842834,450.788116 575.332336,447.297760 
	C577.587036,454.699768 580.099365,461.160522 579.899536,468.621674 
	C575.714661,468.373840 573.637268,466.811798 573.764526,462.858765 
	C573.822815,461.046173 573.828552,459.191925 573.512329,457.418213 
	C573.176819,455.537231 572.058716,456.065826 570.821533,457.240723 
z"/>
<path fill="#000000" opacity="1.000000" stroke="none" 
	d="
M484.817688,483.931580 
	C479.816833,483.552643 478.028473,480.873749 478.787048,476.477966 
	C479.367310,473.115631 481.850739,472.415436 484.803467,472.818878 
	C487.309967,473.161407 488.515900,475.005188 488.986969,477.207642 
	C489.676453,480.431305 488.283051,482.678955 484.817688,483.931580 
z"/>
<path fill="#000000" opacity="1.000000" stroke="none" 
	d="
M565.676880,494.421814 
	C562.695923,495.950409 560.207214,496.185852 558.592224,493.104095 
	C557.280334,490.600677 557.755249,488.198425 559.698242,486.256470 
	C561.488892,484.466797 563.765442,484.418701 565.512573,486.116821 
	C567.970459,488.505798 568.020020,491.356506 565.676880,494.421814 
z"/>
</svg>